<?xml version="1.0" standalone="no"?>
<!DOCTYPE svg PUBLIC "-//W3C//DTD SVG 20010904//EN"
 "http://www.w3.org/TR/2001/REC-SVG-20010904/DTD/svg10.dtd">
<svg version="1.0" xmlns="http://www.w3.org/2000/svg"
 width="512.000000pt" height="512.000000pt" viewBox="0 0 512.000000 512.000000"
 preserveAspectRatio="xMidYMid meet">
<metadata>
Created by potrace 1.11, written by Peter Selinger 2001-2013
</metadata>
<g transform="translate(0.000000,512.000000) scale(0.100000,-0.100000)"
fill="#000000" stroke="none">
<path d="M2368 4805 c-3 -3 -98 -16 -153 -20 -16 -1 -37 -4 -45 -7 -8 -3 -62
-15 -119 -28 -104 -22 -290 -80 -340 -106 -14 -8 -29 -14 -33 -14 -30 0 -292
-144 -398 -219 -57 -40 -92 -67 -189 -146 -60 -49 -205 -198 -272 -280 -41
-49 -78 -93 -84 -97 -5 -4 -6 -8 -2 -8 5 0 -4 -17 -20 -37 -35 -46 -81 -116
-107 -163 -52 -96 -106 -206 -106 -217 0 -7 -5 -13 -12 -13 -6 0 -9 -3 -5 -6
3 -4 -3 -24 -14 -45 -11 -22 -17 -39 -13 -39 3 0 0 -10 -8 -22 -13 -20 -23
-50 -33 -93 -2 -5 -11 -37 -21 -70 -10 -33 -19 -64 -20 -70 -1 -5 -5 -23 -9
-40 -4 -16 -8 -39 -10 -50 -2 -11 -4 -20 -5 -20 -4 0 -23 -128 -23 -162 -1
-13 -3 -23 -6 -23 -7 0 -9 -45 -10 -235 -2 -116 4 -260 9 -260 1 0 3 -11 4
-25 8 -78 17 -132 26 -155 7 -19 7 -24 -1 -19 -8 4 -8 0 0 -15 7 -11 9 -21 5
-21 -3 0 -2 -6 4 -13 6 -7 13 -28 16 -47 2 -19 11 -57 20 -84 8 -27 12 -54 9
-59 -3 -6 -1 -7 5 -3 11 6 17 -6 13 -27 -1 -4 6 -21 15 -38 13 -25 13 -33 2
-47 -11 -13 -11 -14 1 -8 16 10 31 -9 31 -41 0 -12 5 -23 10 -25 6 -2 12 -12
14 -23 2 -11 16 -42 30 -70 15 -27 24 -55 21 -63 -2 -7 -1 -10 5 -7 5 3 17
-12 27 -32 9 -21 22 -43 29 -50 6 -6 17 -25 24 -42 7 -17 17 -31 22 -31 5 0 7
-4 4 -9 -3 -5 1 -14 9 -21 20 -16 46 -70 39 -81 -3 -5 1 -6 8 -4 8 3 21 -7 31
-24 10 -17 23 -36 30 -43 33 -34 66 -86 59 -93 -4 -5 -2 -5 4 -2 12 7 46 -28
37 -37 -4 -3 2 -6 11 -6 12 0 16 -5 13 -14 -4 -11 -1 -13 11 -9 9 3 14 3 10
-1 -7 -8 79 -96 94 -96 5 0 6 -4 3 -10 -3 -5 1 -10 10 -10 11 0 15 -5 12 -15
-4 -8 -1 -17 5 -21 7 -4 8 -3 4 4 -4 7 -3 12 3 12 5 0 11 -3 13 -8 2 -4 23
-24 48 -45 25 -21 45 -44 45 -50 0 -7 8 -11 18 -9 9 2 17 -2 17 -8 0 -6 4 -9
8 -6 5 3 15 -4 22 -15 8 -10 20 -19 27 -19 7 0 13 -4 13 -8 0 -5 11 -15 25
-22 13 -7 22 -18 18 -23 -4 -6 -1 -7 6 -3 7 5 20 2 29 -6 9 -8 34 -23 55 -33
20 -11 37 -22 37 -25 0 -3 20 -14 45 -25 25 -11 45 -23 45 -27 0 -5 8 -8 18
-8 23 -1 54 -25 44 -35 -4 -5 -2 -5 4 -2 14 8 76 -12 86 -27 4 -6 8 -8 8 -4 0
4 16 -1 36 -12 19 -11 39 -18 45 -15 5 4 9 -2 10 -12 0 -10 3 -13 5 -7 5 12
123 -23 135 -40 4 -5 11 -6 17 -2 6 3 13 2 17 -4 4 -6 11 -8 16 -4 5 3 16 0
24 -6 8 -7 15 -10 15 -7 0 3 17 1 38 -5 20 -5 50 -11 67 -14 16 -2 39 -7 50
-11 11 -4 31 -8 45 -9 58 -4 56 -3 40 -14 -9 -6 -10 -10 -3 -10 6 0 15 4 18
10 3 5 11 10 16 10 6 0 7 -5 3 -11 -5 -8 -1 -8 14 0 13 7 23 7 27 2 3 -6 15
-8 27 -6 12 3 27 -3 35 -13 8 -9 12 -11 8 -5 -6 12 8 18 30 13 6 -1 73 -2 150
-2 145 0 227 6 247 18 7 5 8 2 3 -7 -7 -11 -6 -12 6 -3 8 6 21 12 29 12 49 2
99 10 110 17 9 6 11 4 5 -4 -5 -9 -3 -10 11 -2 24 12 205 56 221 53 6 -1 14 2
18 8 5 8 11 7 21 -1 12 -10 13 -9 8 6 -6 15 -3 17 15 12 14 -3 24 0 27 8 4 8
17 12 35 10 16 -2 27 0 24 4 -6 11 23 23 36 15 5 -3 9 0 9 5 0 6 9 11 20 11
11 0 20 5 20 10 0 6 6 10 12 10 15 0 258 120 274 135 6 5 27 19 47 30 20 11
37 23 37 27 0 5 5 8 11 8 9 0 73 45 126 90 16 14 26 13 17 -2 -5 -7 -3 -8 5
-4 7 5 10 10 7 13 -3 4 4 15 17 25 12 11 36 31 52 46 17 15 33 26 37 25 4 -2
10 7 13 18 5 14 12 18 23 14 9 -3 13 -3 10 1 -4 4 8 22 27 41 19 19 35 40 35
46 0 6 3 7 6 4 4 -3 15 5 26 18 11 14 24 23 29 20 5 -4 6 1 3 9 -4 9 1 18 10
22 9 3 13 11 9 17 -4 6 0 8 11 4 9 -4 15 -3 12 2 -7 11 29 53 38 44 4 -4 4 1
0 12 -6 14 -4 17 8 13 10 -4 15 -1 14 10 0 10 5 16 14 14 8 -2 12 0 8 4 -4 4
0 13 10 21 10 9 11 11 2 7 -13 -7 -13 -6 0 12 8 10 17 21 21 24 3 3 16 23 29
45 13 22 28 45 33 50 15 18 55 88 105 188 27 53 52 94 57 90 4 -5 5 -3 2 3 -8
13 14 74 26 74 4 0 5 5 1 11 -3 6 4 25 16 41 13 17 16 27 9 23 -12 -8 -12 -6
0 8 7 9 11 17 7 17 -3 0 3 22 14 49 18 48 57 194 67 256 3 17 8 32 11 35 4 3
9 30 10 60 5 78 7 95 14 105 9 16 7 458 -3 482 -6 16 -5 23 4 23 8 0 9 2 1 8
-6 4 -14 34 -18 67 -3 33 -9 74 -12 90 -4 17 -7 37 -8 45 -1 9 -5 20 -8 25 -5
9 -19 69 -23 100 -1 6 -5 17 -8 25 -16 38 -79 226 -79 238 -1 6 -5 12 -10 12
-4 0 -8 6 -8 13 0 6 -22 55 -49 107 -74 146 -95 182 -113 204 -10 11 -18 26
-18 33 0 7 -4 13 -10 13 -5 0 -10 6 -10 14 0 8 -3 16 -8 18 -4 2 -25 28 -46
58 -22 30 -66 87 -99 125 -62 72 -276 285 -288 285 -3 0 -19 11 -35 26 -77 67
-252 178 -393 249 -153 77 -298 130 -461 170 -85 20 -134 30 -275 51 -43 7
-451 15 -457 9z"/>
<path d="M595 1421 c-3 -5 -2 -12 3 -15 5 -3 9 1 9 9 0 17 -3 19 -12 6z"/>
<path d="M956 922 c-3 -5 1 -9 9 -9 8 0 12 4 9 9 -3 4 -7 8 -9 8 -2 0 -6 -4
-9 -8z"/>
<path d="M4000 806 c0 -2 8 -10 18 -17 15 -13 16 -12 3 4 -13 16 -21 21 -21
13z"/>
<path d="M1110 786 c0 -2 7 -7 16 -10 8 -3 12 -2 9 4 -6 10 -25 14 -25 6z"/>
<path d="M3815 661 c-3 -5 -2 -12 3 -15 5 -3 9 1 9 9 0 17 -3 19 -12 6z"/>
<path d="M1473 525 c0 -8 4 -12 9 -9 5 3 6 10 3 15 -9 13 -12 11 -12 -6z"/>
<path d="M1836 373 c-6 -14 -5 -15 5 -6 7 7 10 15 7 18 -3 3 -9 -2 -12 -12z"/>
<path d="M2050 339 c0 -5 5 -7 10 -4 6 3 10 8 10 11 0 2 -4 4 -10 4 -5 0 -10
-5 -10 -11z"/>
<path d="M2135 331 c-3 -5 -2 -12 3 -15 5 -3 9 1 9 9 0 17 -3 19 -12 6z"/>
<path d="M2855 301 c-3 -5 -2 -12 3 -15 5 -3 9 1 9 9 0 17 -3 19 -12 6z"/>
<path d="M2399 273 c-13 -16 -12 -17 4 -4 16 13 21 21 13 21 -2 0 -10 -8 -17
-17z"/>
<path d="M2574 282 c4 -3 14 -7 22 -8 9 -1 13 0 10 4 -4 3 -14 7 -22 8 -9 1
-13 0 -10 -4z"/>
</g>
</svg>
