<svg xmlns="http://www.w3.org/2000/svg" xmlns:xlink="http://www.w3.org/1999/xlink" version="1.1" x="0px" y="0px" viewBox="0 0 100 125" style="enable-background:new 0 0 100 100;" xml:space="preserve"><g><path d="M66.5,27.7c-7.6,0-14.7,3.9-18.8,10.1c-4.1-6.2-11.2-10.1-18.8-10.1c-12.4,0-22.5,10.1-22.5,22.5s10.1,22.5,22.5,22.5   c7.6,0,14.7-3.9,18.8-10.1c4.1,6.2,11.2,10.1,18.8,10.1c12.4,0,22.5-10.1,22.5-22.5S79,27.7,66.5,27.7z M66.5,68.8   c-7.3,0-14-4.4-17-11.1l-1.8-4.2l-1.8,4.2c-3,6.7-9.6,11.1-17,11.1c-10.2,0-18.5-8.3-18.5-18.5s8.3-18.5,18.5-18.5   c7.3,0,14,4.3,17,11.1l1.8,4.2l1.8-4.2c3-6.7,9.6-11.1,17-11.1c10.2,0,18.5,8.3,18.5,18.5S76.8,68.8,66.5,68.8z"/><ellipse transform="matrix(0.4127 -0.9109 0.9109 0.4127 -28.8449 56.6926)" cx="29.5" cy="50.7" rx="9.9" ry="9.9"/><circle cx="66.5" cy="50.7" r="9.9"/></g><text x="0" y="115" fill="#000000" font-size="5px" font-weight="bold" font-family="'Helvetica Neue', Helvetica, Arial-Unicode, Arial, Sans-serif">Created by Sean Maldjian</text><text x="0" y="120" fill="#000000" font-size="5px" font-weight="bold" font-family="'Helvetica Neue', Helvetica, Arial-Unicode, Arial, Sans-serif">from the Noun Project</text></svg>