<svg xmlns:dc="http://purl.org/dc/elements/1.1/" xmlns:cc="http://creativecommons.org/ns#" xmlns:rdf="http://www.w3.org/1999/02/22-rdf-syntax-ns#" xmlns:svg="http://www.w3.org/2000/svg" xmlns="http://www.w3.org/2000/svg" xmlns:sodipodi="http://sodipodi.sourceforge.net/DTD/sodipodi-0.dtd" xmlns:inkscape="http://www.inkscape.org/namespaces/inkscape" viewBox="0 0 48 48.000001" version="1.1" x="0px" y="0px"><g transform="translate(0,-1004.3622)"><path style="color:#000000;font-style:normal;font-variant:normal;font-weight:normal;font-stretch:normal;font-size:medium;line-height:normal;font-family:sans-serif;text-indent:0;text-align:start;text-decoration:none;text-decoration-line:none;text-decoration-style:solid;text-decoration-color:#000000;letter-spacing:normal;word-spacing:normal;text-transform:none;direction:ltr;block-progression:tb;writing-mode:lr-tb;baseline-shift:baseline;text-anchor:start;white-space:normal;clip-rule:nonzero;display:inline;overflow:visible;visibility:visible;opacity:1;isolation:auto;mix-blend-mode:normal;color-interpolation:sRGB;color-interpolation-filters:linearRGB;solid-color:#000000;solid-opacity:1;fill:#000000;fill-opacity:1;fill-rule:nonzero;stroke:none;stroke-width:1.5;stroke-linecap:butt;stroke-linejoin:miter;stroke-miterlimit:4;stroke-dasharray:none;stroke-dashoffset:0;stroke-opacity:1;color-rendering:auto;image-rendering:auto;shape-rendering:auto;text-rendering:auto;enable-background:accumulate" d="m 23.983202,1004.3642 c -2.864144,0 -5.553331,0.7357 -7.896054,2.0204 l 4.253447,1.974 1.186085,3.5541 -1.533734,0.5119 -0.964854,-2.8926 -4.563236,-2.1172 c -4.181825,2.9764 -6.9142657,7.8496 -6.9142657,13.3757 l 0,0 0,24.0211 8.2963417,0 -3.014724,-3.7753 -1.761222,0 0,-1.618 2.538607,0 1.337743,1.6749 0.838544,-2.5176 2.445843,-1.2219 0.722697,1.4453 -1.843416,0.9248 -0.958598,2.8757 1.767587,2.2121 22.529474,0 0,-1.7254 -7.186085,-1.026 -3.429789,-4.5716 1.295676,-0.9712 0.577187,0.7689 1.628548,-2.4417 1.346157,0.8975 -1.944485,2.9157 1.419937,1.894 6.292854,0.8974 0,-20.6924 c 0,-2.4051 -0.538894,-4.6819 -1.470526,-6.7373 l 0.364477,1.0912 -2.903083,0.967 -0.922787,1.8455 -1.447335,-0.7247 1.224054,-2.4438 3.480378,-1.1587 c -2.672684,-5.4714 -8.28027,-9.2403 -14.791443,-9.2338 z"></path><path style="color:#000000;font-style:normal;font-variant:normal;font-weight:normal;font-stretch:normal;font-size:medium;line-height:normal;font-family:sans-serif;text-indent:0;text-align:start;text-decoration:none;text-decoration-line:none;text-decoration-style:solid;text-decoration-color:#000000;letter-spacing:normal;word-spacing:normal;text-transform:none;direction:ltr;block-progression:tb;writing-mode:lr-tb;baseline-shift:baseline;text-anchor:start;white-space:normal;clip-rule:nonzero;display:inline;overflow:visible;visibility:visible;opacity:1;isolation:auto;mix-blend-mode:normal;color-interpolation:sRGB;color-interpolation-filters:linearRGB;solid-color:#000000;solid-opacity:1;fill:#000000;fill-opacity:1;fill-rule:nonzero;stroke:none;stroke-width:1.5;stroke-linecap:butt;stroke-linejoin:miter;stroke-miterlimit:4;stroke-dasharray:none;stroke-dashoffset:0;stroke-opacity:1;color-rendering:auto;image-rendering:auto;shape-rendering:auto;text-rendering:auto;enable-background:accumulate" d="m 2.1573318,1046.3622 43.6853942,0 0,6 -43.6853942,0 0,-6 z"></path></g></svg>