<svg xmlns="http://www.w3.org/2000/svg" xmlns:xlink="http://www.w3.org/1999/xlink" version="1.1" x="0px" y="0px" viewBox="0 0 100 125" enable-background="new 0 0 100 100" xml:space="preserve"><path d="M61.261,49.756c0,6.219-5.042,11.261-11.261,11.261s-11.261-5.042-11.261-11.261S43.781,38.495,50,38.495  S61.261,43.536,61.261,49.756z"/><path d="M58.413,79.785h-4.659v7.507c0,2.073-1.681,3.754-3.754,3.754s-3.754-1.681-3.754-3.754v-7.507h-4.659  c-1.051,0-1.577-1.271-0.834-2.014l8.413-8.413c0.461-0.461,1.208-0.461,1.668,0l8.413,8.413  C59.99,78.514,59.464,79.785,58.413,79.785z"/><path d="M59.247,22.229l-8.413,8.413c-0.461,0.461-1.208,0.461-1.668,0l-8.413-8.413c-0.743-0.743-0.217-2.014,0.834-2.014h4.659  v-7.507c0-2.073,1.681-3.754,3.754-3.754s3.754,1.681,3.754,3.754v7.507h4.659C59.464,20.215,59.99,21.486,59.247,22.229z"/><path d="M79.785,41.587v4.659h7.507c2.073,0,3.754,1.681,3.754,3.754s-1.681,3.754-3.754,3.754h-7.507v4.659  c0,1.051-1.271,1.577-2.014,0.834l-8.413-8.413c-0.461-0.461-0.461-1.208,0-1.668l8.413-8.413  C78.514,40.01,79.785,40.536,79.785,41.587z"/><path d="M22.229,40.753l8.413,8.413c0.461,0.461,0.461,1.208,0,1.668l-8.413,8.413c-0.743,0.743-2.014,0.217-2.014-0.834v-4.659  h-7.507c-2.073,0-3.754-1.681-3.754-3.754s1.681-3.754,3.754-3.754h7.507v-4.659C20.215,40.536,21.486,40.01,22.229,40.753z"/><text x="0" y="115" fill="#000000" font-size="5px" font-weight="bold" font-family="'Helvetica Neue', Helvetica, Arial-Unicode, Arial, Sans-serif">Created by Ayub Irawan</text><text x="0" y="120" fill="#000000" font-size="5px" font-weight="bold" font-family="'Helvetica Neue', Helvetica, Arial-Unicode, Arial, Sans-serif">from the Noun Project</text></svg>