<svg xmlns:dc="http://purl.org/dc/elements/1.1/" xmlns:cc="http://creativecommons.org/ns#" xmlns:rdf="http://www.w3.org/1999/02/22-rdf-syntax-ns#" xmlns:svg="http://www.w3.org/2000/svg" xmlns="http://www.w3.org/2000/svg" xmlns:sodipodi="http://sodipodi.sourceforge.net/DTD/sodipodi-0.dtd" xmlns:inkscape="http://www.inkscape.org/namespaces/inkscape" viewBox="0 0 100 100" version="1.1" x="0px" y="0px"><g transform="translate(0,-952.3621)"><path style="color:#000000;enable-background:accumulate;" d="m 31.54906,967.7415 c -12.913869,0 -23.31077,10.3966 -23.31077,23.3107 l 0,39.6671 -3.238533,0 0,6.2649 3.352192,0 46.392705,0 3.352189,0 0,-6.2649 -3.238525,0 0,-39.6671 c 0,-12.9141 -10.395336,-23.3107 -23.309258,-23.3107 z m 58.043543,0 c -4.92293,4.9229 -9.84518,9.8452 -14.76813,14.7681 1.95778,0.5246 3.91473,1.05 5.8724,1.5746 -1.30222,5.1238 -2.76521,10.2904 -5.7254,14.7423 -3.66729,5.9291 -9.10866,10.5744 -15.23036,13.8271 -0.5785,0.3339 -1.15662,0.6693 -1.73519,1.0032 l 0.002,0 c 1.45407,2.5185 2.909,5.0376 4.36301,7.5561 4.7076,-2.6293 9.37322,-5.4514 13.18145,-9.3231 6.49963,-6.3028 10.94858,-14.5613 12.98747,-23.3593 0.27372,-0.6559 0.28364,-1.7686 0.71378,-2.1534 1.9156,0.5132 3.83109,1.0265 5.74661,1.5397 -1.80231,-6.7256 -3.60489,-13.4514 -5.40715,-20.1768 z M 31.54906,983.0158 a 15.827329,15.744896 0 0 1 15.825921,15.7456 15.827329,15.744896 0 0 1 -5.163161,11.6084 15.827329,15.744896 0 0 0 0.290968,-0.2501 l 0,9.5823 a 26.202882,21.86531 0 0 1 -3.9902,1.2048 l 0,-3.7766 c -0.611375,0.1522 -1.275584,0.2962 -1.983734,0.4259 l 0,3.7583 a 26.202882,21.86531 0 0 1 -3.991716,0.3774 l 0,-3.6826 c -0.326806,0.012 -0.654285,0.024 -0.988078,0.024 -0.33451,0 -0.663676,-0.011 -0.991109,-0.024 l 0,3.7007 a 26.202882,21.86531 0 0 1 -3.991716,-0.4137 l 0,-3.7386 c -0.708067,-0.1296 -1.371047,-0.2739 -1.982219,-0.4259 l 0,3.7735 a 26.202882,21.86531 0 0 1 -3.988684,-1.2002 l 0,-9.5853 A 15.827329,15.744896 0 0 1 15.72162,998.7614 15.827329,15.744896 0 0 1 31.54906,983.0158 Z m -5.884522,14.2331 c -1.831867,-0.025 -3.552882,1.1547 -4.041726,2.9794 -0.579415,2.1621 0.03737,4.2065 2.211053,4.7889 2.173718,0.5825 4.404901,-0.6971 4.98434,-2.8597 0.579365,-2.1622 0.04296,-4.1869 -2.130733,-4.7691 -0.339597,-0.091 -0.683712,-0.1322 -1.022934,-0.1395 z m 11.766014,0 c -0.339222,0.01 -0.681796,0.048 -1.02142,0.1395 -2.17372,0.5822 -2.710122,2.6069 -2.130732,4.7691 0.579438,2.1626 2.809107,3.4422 4.982824,2.8597 2.173694,-0.5824 2.790468,-2.6268 2.211053,-4.7889 -0.488895,-1.8247 -2.209858,-3.0051 -4.041725,-2.9794 z m -5.881492,10.0945 c -0.581042,0 -3.197181,3.3811 -2.906648,3.7568 0.290508,0.3758 5.519756,0.3758 5.810265,0 0.290532,-0.3757 -2.322549,-3.7568 -2.903617,-3.7568 z" display="inline" overflow="visible" visibility="visible" fill="#000000" fill-opacity="1" fill-rule="nonzero" stroke="none" marker="none"></path></g></svg>