<svg xmlns="http://www.w3.org/2000/svg" xmlns:xlink="http://www.w3.org/1999/xlink" version="1.1" x="0px" y="0px" viewBox="0 0 100 125" enable-background="new 0 0 100 100" xml:space="preserve"><path d="M39.537,14.527v23.086c0,1.168-0.977,2.1-2.198,2.1H14.424c-1.214,0-2.202-0.932-2.202-2.1V14.527  c0-1.168,0.988-2.107,2.202-2.107h22.915C38.56,12.42,39.537,13.359,39.537,14.527z M46.763,9.481v33.17  c0,2.367-1.97,4.275-4.413,4.275H9.42c-2.439,0-4.42-1.909-4.42-4.275V9.481c0-2.367,1.981-4.275,4.42-4.275h32.93  C44.793,5.206,46.763,7.115,46.763,9.481z M43.16,13.13c0-2.39-1.996-4.321-4.436-4.321H13.046c-2.443,0-4.428,1.931-4.428,4.321  v25.865c0,2.382,1.985,4.329,4.428,4.329h25.678c2.439,0,4.436-1.947,4.436-4.329V13.13z M85.575,12.42H62.661  c-1.218,0-2.206,0.939-2.206,2.107v23.086c0,1.168,0.988,2.1,2.206,2.1h22.914c1.218,0,2.203-0.932,2.203-2.1V14.527  C87.778,13.359,86.793,12.42,85.575,12.42z M95,9.481v33.17c0,2.367-1.974,4.275-4.416,4.275H57.653c-2.428,0-4.42-1.909-4.42-4.275  V9.481c0-2.367,1.992-4.275,4.42-4.275h32.931C93.026,5.206,95,7.115,95,9.481z M91.396,13.13c0-2.39-1.996-4.321-4.439-4.321  H61.283c-2.442,0-4.432,1.931-4.432,4.321v25.865c0,2.382,1.989,4.329,4.432,4.329h25.674c2.443,0,4.439-1.947,4.439-4.329V13.13z   M37.339,60.287H14.424c-1.214,0-2.202,0.939-2.202,2.107V85.48c0,1.16,0.988,2.092,2.202,2.092h22.915  c1.221,0,2.198-0.932,2.198-2.092V62.395C39.537,61.227,38.56,60.287,37.339,60.287z M46.763,57.34v33.187  c0,2.359-1.97,4.268-4.413,4.268H9.42c-2.439,0-4.42-1.908-4.42-4.268V57.34c0-2.358,1.981-4.274,4.42-4.274h32.93  C44.793,53.065,46.763,54.981,46.763,57.34z M43.16,61.005c0-2.397-1.996-4.329-4.436-4.329H13.046  c-2.443,0-4.428,1.932-4.428,4.329v25.857c0,2.374,1.985,4.328,4.428,4.328h25.678c2.439,0,4.436-1.954,4.436-4.328V61.005z   M85.575,60.287H62.661c-1.218,0-2.206,0.939-2.206,2.107V85.48c0,1.16,0.988,2.092,2.206,2.092h22.914  c1.218,0,2.203-0.932,2.203-2.092V62.395C87.778,61.227,86.793,60.287,85.575,60.287z M95,57.34v33.187  c0,2.359-1.974,4.268-4.416,4.268H57.653c-2.428,0-4.42-1.908-4.42-4.268V57.34c0-2.358,1.992-4.274,4.42-4.274h32.931  C93.026,53.065,95,54.981,95,57.34z M91.396,61.005c0-2.397-1.996-4.329-4.439-4.329H61.283c-2.442,0-4.432,1.932-4.432,4.329  v25.857c0,2.374,1.989,4.328,4.432,4.328h25.674c2.443,0,4.439-1.954,4.439-4.328V61.005z"/><text x="0" y="115" fill="#000000" font-size="5px" font-weight="bold" font-family="'Helvetica Neue', Helvetica, Arial-Unicode, Arial, Sans-serif">Created by Cris Dobbins</text><text x="0" y="120" fill="#000000" font-size="5px" font-weight="bold" font-family="'Helvetica Neue', Helvetica, Arial-Unicode, Arial, Sans-serif">from the Noun Project</text></svg>