<svg xmlns="http://www.w3.org/2000/svg" xmlns:xlink="http://www.w3.org/1999/xlink" version="1.1" x="0px" y="0px" viewBox="0 0 150 187.5" style="enable-background:new 0 0 150 150;" xml:space="preserve"><g><path d="M57,32.2c4.4-0.9,7.8-4.8,7.8-9.5c0-5.3-4.4-9.7-9.8-9.7c-5.4,0-9.8,4.3-9.8,9.7c0,4.7,3.4,8.6,7.8,9.5v11.9   c1.3-0.7,2.6-1.4,4-2V32.2z"/><path d="M97,32.2c4.4-0.9,7.8-4.8,7.8-9.5c0-5.3-4.4-9.7-9.8-9.7c-5.4,0-9.8,4.3-9.8,9.7c0,4.7,3.3,8.6,7.8,9.5v9.9   c1.4,0.6,2.7,1.3,4,2V32.2z"/><path d="M82.7,88c0,4.2-3.5,7.6-7.7,7.6s-7.7-3.4-7.7-7.6c0-4.2,3.5-7.6,7.7-7.6S82.7,83.8,82.7,88z"/><path d="M97,48.1c-1.3-0.7-2.6-1.4-4-2c-5.5-2.4-11.6-3.8-18-3.8c-6.4,0-12.5,1.4-18,3.8c-1.4,0.6-2.7,1.3-4,2   c-13.2,7.5-22.1,21.6-22.1,37.6v36.4c0,4.4,2.3,8.3,6.2,10.5c4,2.2,8.6,2.1,12.5-0.3c2.7-1.7,6.1-1.7,8.8,0   c5.1,3.2,10.9,4.7,16.7,4.7s11.6-1.6,16.7-4.7c2.7-1.7,6.1-1.7,8.8,0c3.8,2.4,8.5,2.5,12.5,0.3c3.9-2.2,6.2-6.1,6.2-10.5V85.7   C119.1,69.6,110.2,55.6,97,48.1z M75,104.4c-10.7,0-19.5-8.6-19.5-19.2c0-10.6,8.7-19.2,19.5-19.2s19.5,8.6,19.5,19.2   C94.5,95.7,85.7,104.4,75,104.4z"/></g><text x="0" y="165" fill="#000000" font-size="5px" font-weight="bold" font-family="'Helvetica Neue', Helvetica, Arial-Unicode, Arial, Sans-serif">Created by Symbolon</text><text x="0" y="170" fill="#000000" font-size="5px" font-weight="bold" font-family="'Helvetica Neue', Helvetica, Arial-Unicode, Arial, Sans-serif">from the Noun Project</text></svg>